<svg width="619" height="278" viewBox="0 0 619 278" fill="none" xmlns="http://www.w3.org/2000/svg">
<path d="M80.204 277.116C60.9302 277.116 45.1204 272.586 32.7745 263.527C20.5174 254.467 11.9908 241.988 7.19455 226.089C2.39831 210.191 1.68775 192.027 5.06288 171.599C8.43802 150.815 15.2771 132.474 25.5801 116.575C35.8832 100.588 48.7175 88.1085 64.0833 79.1378C79.449 70.0782 96.3691 65.5485 114.843 65.5485C129.232 65.5485 141.756 68.213 152.414 73.5422C163.072 78.8713 171.288 86.3322 177.061 95.9246C182.835 105.517 185.544 116.708 185.188 129.498H153.746C152.858 120.172 148.861 111.912 141.756 104.718C134.739 97.4346 124.347 93.793 110.58 93.793C98.3231 93.793 87.043 96.9905 76.74 103.385C66.437 109.692 57.7771 118.618 50.7604 130.164C43.7437 141.622 38.9918 155.078 36.5049 170.533C33.8403 186.343 34.0624 200.11 37.171 211.834C40.2797 223.558 45.9197 232.662 54.0911 239.146C62.2625 245.629 72.5655 248.871 85.0002 248.871C93.1716 248.871 100.81 247.45 107.916 244.608C115.021 241.766 121.327 237.68 126.834 232.351C132.341 227.022 136.693 220.627 139.89 213.166H171.332C167.424 225.245 161.163 236.126 152.547 245.807C143.932 255.4 133.495 263.038 121.238 268.722C108.981 274.318 95.3032 277.116 80.204 277.116ZM316.046 68.213L310.85 100.188H199.071L204.267 68.213H316.046ZM242.237 19.1848H282.072L249.831 212.766C248.587 220.494 248.809 226.311 250.497 230.219C252.185 234.039 254.76 236.659 258.224 238.08C261.777 239.412 265.73 240.078 270.082 240.078C273.279 240.078 276.077 239.856 278.475 239.412C280.873 238.968 282.783 238.613 284.204 238.346L286.336 271.254C283.671 272.142 280.074 273.03 275.544 273.918C271.103 274.895 265.685 275.428 259.29 275.517C248.809 275.695 239.35 273.83 230.912 269.922C222.475 265.925 216.168 259.885 211.994 251.802C207.819 243.631 206.798 233.372 208.93 221.027L242.237 19.1848ZM308.999 272.853L343.106 68.213H389.869L384.14 102.32H386.272C391.868 90.5067 399.772 81.4027 409.987 75.0077C420.29 68.5239 431.303 65.282 443.027 65.282C445.781 65.282 448.756 65.4152 451.954 65.6817C455.151 65.8593 457.905 66.1702 460.214 66.6143L452.753 110.979C450.71 110.269 447.513 109.647 443.161 109.114C438.897 108.493 434.678 108.182 430.504 108.182C421.711 108.182 413.539 110.091 405.99 113.911C398.529 117.641 392.223 122.837 387.071 129.498C381.92 136.16 378.589 143.843 377.079 152.547L357.228 272.853H308.999ZM543.03 -0.000141299L497.732 272.853H440.977L486.275 -0.000141299H543.03ZM581.215 277.116C570.912 277.116 562.074 273.519 554.702 266.324C547.419 259.041 543.822 250.204 543.911 239.812C543.822 229.686 547.419 221.027 554.702 213.832C562.074 206.638 570.912 203.041 581.215 203.041C590.985 203.041 599.601 206.638 607.061 213.832C614.611 221.027 618.43 229.686 618.519 239.812C618.43 246.74 616.609 253.046 613.057 258.73C609.593 264.326 605.063 268.811 599.467 272.186C593.872 275.473 587.788 277.116 581.215 277.116Z" fill="black" fill-opacity="0.9"/>
</svg>
